# xmcd CD database file
# Copyright (C) 1993-1998 Ti Kan
#
# Track frame offsets:
#	150
#	753
#	18884
#	33894
#	50800
#	63341
#	80627
#	96665
#	111479
#	126671
#	141116
#	156311
#	172724
#	173302
#
# Disc length: 2461 seconds
#
# Revision: 1
# Processed by: cddbd v1.4b41PL1 Copyright (c) Steve Scherf et al.
# Submitted via: CDValet v3.31 - Copyright (c) 1997 Greg Leichner
#
DISCID=b0099b0e
DTITLE=Country Company - My Kind Of Country
DYEAR=1900
DGENRE=
TTITLE0=Laba #1
TTITLE1=My kind of Country
TTITLE2=If the Devil ain´t married
TTITLE3=Is this love
TTITLE4=One more night
TTITLE5=Country life (from the German Corner)
TTITLE6=Someone who likes me
TTITLE7=Born country
TTITLE8=Born beside the jukebox
TTITLE9=Gettin´ even
TTITLE10=My best friend´s girl
TTITLE11=Wir brauchen Dich
TTITLE12=Country roads
TTITLE13=Laba #2
EXTD=
EXTT0=
EXTT1=
EXTT2=
EXTT3=
EXTT4=
EXTT5=
EXTT6=
EXTT7=
EXTT8=
EXTT9=
EXTT10=
EXTT11=
EXTT12=
EXTT13=
PLAYORDER=
